<svg width="141" height="21" viewBox="0 0 141 21" fill="none" xmlns="http://www.w3.org/2000/svg">
<path d="M50.584 15.44C50.616 15.4827 50.632 15.5413 50.632 15.616C50.632 15.7227 50.5947 15.8133 50.52 15.888C50.456 15.9627 50.3707 16 50.264 16H49.352C49.2453 16 49.16 15.9787 49.096 15.936C49.0427 15.8933 48.9893 15.8347 48.936 15.76L45.864 11.04H43.96V15.632C43.96 15.7387 43.9227 15.8293 43.848 15.904C43.7733 15.968 43.6827 16 43.576 16H42.76C42.6533 16 42.5627 15.968 42.488 15.904C42.424 15.8293 42.392 15.7387 42.392 15.632V5.184C42.392 5.06667 42.424 4.976 42.488 4.912C42.5627 4.83733 42.6533 4.8 42.76 4.8H43.576C43.6933 4.8 43.784 4.83733 43.848 4.912C43.9227 4.976 43.96 5.06667 43.96 5.184V9.6L45.784 9.616L48.616 5.056C48.7227 4.88533 48.904 4.8 49.16 4.8H50.024C50.248 4.8 50.36 4.90667 50.36 5.12C50.36 5.17333 50.3333 5.24267 50.28 5.328L47.208 10.224L50.584 15.44ZM55.342 16.16C54.1687 16.16 53.2567 15.8293 52.606 15.168C51.966 14.5067 51.6247 13.6267 51.582 12.528L51.566 11.84L51.582 11.152C51.6247 10.064 51.9713 9.18933 52.622 8.528C53.2727 7.856 54.1793 7.52 55.342 7.52C56.5047 7.52 57.4113 7.856 58.062 8.528C58.7127 9.18933 59.0593 10.064 59.102 11.152C59.1127 11.2693 59.118 11.4987 59.118 11.84C59.118 12.1813 59.1127 12.4107 59.102 12.528C59.0593 13.6267 58.7127 14.5067 58.062 15.168C57.422 15.8293 56.5153 16.16 55.342 16.16ZM55.342 14.928C56.014 14.928 56.542 14.7147 56.926 14.288C57.3207 13.8613 57.534 13.248 57.566 12.448C57.5767 12.3413 57.582 12.1387 57.582 11.84C57.582 11.5413 57.5767 11.3387 57.566 11.232C57.534 10.432 57.3207 9.81867 56.926 9.392C56.542 8.96533 56.014 8.752 55.342 8.752C54.67 8.752 54.1367 8.96533 53.742 9.392C53.3473 9.81867 53.1393 10.432 53.118 11.232L53.102 11.84L53.118 12.448C53.1393 13.248 53.3473 13.8613 53.742 14.288C54.1367 14.7147 54.67 14.928 55.342 14.928ZM61.5055 19.04C61.3988 19.04 61.3082 19.0027 61.2335 18.928C61.1695 18.864 61.1375 18.7787 61.1375 18.672V8.048C61.1375 7.94133 61.1695 7.856 61.2335 7.792C61.3082 7.71733 61.3988 7.68 61.5055 7.68H62.2415C62.3482 7.68 62.4335 7.71733 62.4975 7.792C62.5722 7.856 62.6095 7.94133 62.6095 8.048V8.752C63.2068 7.93067 64.0815 7.52 65.2335 7.52C66.3535 7.52 67.1908 7.872 67.7455 8.576C68.3108 9.28 68.6148 10.1867 68.6575 11.296C68.6682 11.4133 68.6735 11.5947 68.6735 11.84C68.6735 12.0853 68.6682 12.2667 68.6575 12.384C68.6148 13.4827 68.3108 14.3893 67.7455 15.104C67.1802 15.808 66.3428 16.16 65.2335 16.16C64.1242 16.16 63.2602 15.76 62.6415 14.96V18.672C62.6415 18.7787 62.6095 18.864 62.5455 18.928C62.4815 19.0027 62.3962 19.04 62.2895 19.04H61.5055ZM64.8975 14.864C65.6548 14.864 66.2042 14.6293 66.5455 14.16C66.8975 13.6907 67.0895 13.072 67.1215 12.304C67.1322 12.1973 67.1375 12.0427 67.1375 11.84C67.1375 9.824 66.3908 8.816 64.8975 8.816C64.1615 8.816 63.6068 9.06133 63.2335 9.552C62.8708 10.032 62.6735 10.608 62.6415 11.28L62.6255 11.888L62.6415 12.512C62.6628 13.1413 62.8655 13.6907 63.2495 14.16C63.6335 14.6293 64.1828 14.864 64.8975 14.864ZM73.5488 16.16C72.7701 16.16 72.1248 16.0373 71.6128 15.792C71.1114 15.5467 70.7434 15.248 70.5088 14.896C70.2848 14.544 70.1674 14.1973 70.1568 13.856V13.824C70.1568 13.7387 70.1888 13.6693 70.2528 13.616C70.3168 13.5627 70.3914 13.536 70.4768 13.536H71.2288C71.4208 13.536 71.5488 13.6373 71.6128 13.84C71.7301 14.2453 71.9594 14.5333 72.3008 14.704C72.6528 14.864 73.1114 14.944 73.6768 14.944C74.2208 14.944 74.6688 14.832 75.0208 14.608C75.3728 14.384 75.5488 14.0533 75.5488 13.616C75.5488 13.168 75.4208 12.8373 75.1648 12.624C74.9194 12.4 74.5354 12.288 74.0128 12.288H73.1328C73.0368 12.288 72.9568 12.256 72.8928 12.192C72.8288 12.128 72.7968 12.0427 72.7968 11.936V11.504C72.7968 11.3973 72.8288 11.312 72.8928 11.248C72.9568 11.184 73.0368 11.152 73.1328 11.152H73.9168C74.8234 11.152 75.2768 10.7947 75.2768 10.08C75.2768 9.696 75.1381 9.376 74.8608 9.12C74.5941 8.864 74.1568 8.736 73.5488 8.736C72.9621 8.736 72.5354 8.83733 72.2688 9.04C72.0128 9.232 71.8261 9.54133 71.7088 9.968C71.6661 10.0747 71.6128 10.1547 71.5488 10.208C71.4954 10.2507 71.4154 10.272 71.3088 10.272H70.5888C70.4928 10.272 70.4128 10.2453 70.3488 10.192C70.2848 10.128 70.2528 10.0533 70.2528 9.968C70.2634 9.53067 70.3914 9.12533 70.6368 8.752C70.8821 8.37867 71.2501 8.08 71.7408 7.856C72.2314 7.632 72.8341 7.52 73.5488 7.52C74.2954 7.52 74.9088 7.63733 75.3888 7.872C75.8688 8.10667 76.2154 8.4 76.4288 8.752C76.6421 9.104 76.7488 9.472 76.7488 9.856C76.7488 10.2933 76.6741 10.6507 76.5248 10.928C76.3861 11.1947 76.1301 11.4187 75.7568 11.6C76.2154 11.7707 76.5408 12.0373 76.7328 12.4C76.9354 12.7627 77.0368 13.2053 77.0368 13.728C77.0368 14.5067 76.7168 15.1093 76.0768 15.536C75.4368 15.952 74.5941 16.16 73.5488 16.16ZM85.9123 7.68C85.9976 7.68 86.0723 7.712 86.1363 7.776C86.2109 7.84 86.2483 7.91467 86.2483 8V15.632C86.2483 15.7387 86.2109 15.8293 86.1363 15.904C86.0723 15.968 85.9869 16 85.8802 16H85.1283C85.0216 16 84.9309 15.968 84.8563 15.904C84.7923 15.8293 84.7603 15.7387 84.7603 15.632V9.824L80.3283 15.76C80.2109 15.92 80.0723 16 79.9123 16H79.1923C79.0963 16 79.0109 15.968 78.9363 15.904C78.8723 15.8293 78.8403 15.7493 78.8403 15.664V8.048C78.8403 7.94133 78.8723 7.856 78.9363 7.792C79.0109 7.71733 79.1016 7.68 79.2083 7.68H79.9763C80.0829 7.68 80.1683 7.71733 80.2323 7.792C80.3069 7.856 80.3443 7.94133 80.3443 8.048V13.824L84.7603 7.92C84.8776 7.76 85.0163 7.68 85.1763 7.68H85.9123ZM88.9583 16C88.8516 16 88.7609 15.968 88.6863 15.904C88.6223 15.8293 88.5903 15.7387 88.5903 15.632V8.048C88.5903 7.94133 88.6223 7.856 88.6863 7.792C88.7609 7.71733 88.8516 7.68 88.9583 7.68H89.7263C89.8329 7.68 89.9183 7.71733 89.9823 7.792C90.0569 7.856 90.0943 7.94133 90.0943 8.048V11.12H94.4463V8.048C94.4463 7.94133 94.4783 7.856 94.5423 7.792C94.6169 7.71733 94.7076 7.68 94.8143 7.68H95.5663C95.6729 7.68 95.7583 7.71733 95.8223 7.792C95.8969 7.856 95.9343 7.94133 95.9343 8.048V15.632C95.9343 15.7387 95.8969 15.8293 95.8223 15.904C95.7583 15.968 95.6729 16 95.5663 16H94.8143C94.7076 16 94.6169 15.968 94.5423 15.904C94.4783 15.8293 94.4463 15.7387 94.4463 15.632V12.4H90.0943V15.632C90.0943 15.7387 90.0569 15.8293 89.9823 15.904C89.9183 15.968 89.8329 16 89.7263 16H88.9583ZM100.66 16.16C100.138 16.16 99.6523 16.0533 99.2043 15.84C98.7563 15.6267 98.3989 15.3387 98.1323 14.976C97.8763 14.6027 97.7483 14.192 97.7483 13.744C97.7483 13.04 98.0363 12.464 98.6123 12.016C99.1989 11.5573 99.9883 11.2587 100.98 11.12L103.364 10.784V10.32C103.364 9.232 102.74 8.688 101.492 8.688C101.023 8.688 100.639 8.78933 100.34 8.992C100.042 9.184 99.8176 9.41333 99.6683 9.68C99.6363 9.776 99.5936 9.84533 99.5403 9.888C99.4976 9.93067 99.4336 9.952 99.3483 9.952H98.6603C98.5643 9.952 98.4789 9.92 98.4043 9.856C98.3403 9.78133 98.3083 9.696 98.3083 9.6C98.3189 9.344 98.4363 9.056 98.6603 8.736C98.8949 8.40533 99.2523 8.12267 99.7323 7.888C100.212 7.64267 100.804 7.52 101.508 7.52C102.703 7.52 103.562 7.80267 104.084 8.368C104.607 8.92267 104.868 9.616 104.868 10.448V15.632C104.868 15.7387 104.831 15.8293 104.756 15.904C104.692 15.968 104.607 16 104.5 16H103.764C103.658 16 103.567 15.968 103.492 15.904C103.428 15.8293 103.396 15.7387 103.396 15.632V14.944C103.162 15.2853 102.82 15.5733 102.372 15.808C101.924 16.0427 101.354 16.16 100.66 16.16ZM100.996 14.96C101.69 14.96 102.255 14.736 102.692 14.288C103.14 13.8293 103.364 13.1733 103.364 12.32V11.872L101.508 12.144C100.751 12.2507 100.18 12.432 99.7963 12.688C99.4123 12.9333 99.2203 13.248 99.2203 13.632C99.2203 14.0587 99.3963 14.3893 99.7483 14.624C100.1 14.848 100.516 14.96 100.996 14.96Z" fill="black"/>
<path d="M30.3 7L26.8 7.2L23.6 2.3C23.5 2.1 23.2 2 23 2C22.8 2 22.5 2.1 22.4 2.3L19.2 7.2H15.7C15.3 7.2 15 7.5 15 7.9C15 8 15 8 15 8.1L16.9 14.9C17.1 15.6 17.6 16 18.3 16H27.7C28.4 16 28.9 15.6 29.1 14.9L31 8C31 7.9 31 7.9 31 7.8C31 7.4 30.7 7 30.3 7ZM23 3.9L25.2 7.1H20.9L23 3.9Z" fill="black"/>
<circle cx="10.5" cy="10.5" r="10.5" fill="white"/>
<path d="M7.3996 15C7.30627 15 7.22693 14.972 7.1616 14.916C7.1056 14.8507 7.0776 14.7713 7.0776 14.678V14.23C7.0776 14.0153 7.19427 13.81 7.4276 13.614L10.3956 10.646C11.1143 10.0487 11.6089 9.56333 11.8796 9.19C12.1503 8.80733 12.2856 8.406 12.2856 7.986C12.2856 7.44467 12.1316 7.02 11.8236 6.712C11.5249 6.404 11.0863 6.25 10.5076 6.25C9.96627 6.25 9.53227 6.41333 9.2056 6.74C8.87893 7.05733 8.67827 7.482 8.6036 8.014C8.58493 8.126 8.53827 8.21 8.4636 8.266C8.39827 8.31267 8.3236 8.336 8.2396 8.336H7.5116C7.4276 8.336 7.3576 8.31267 7.3016 8.266C7.2456 8.21 7.2176 8.14467 7.2176 8.07C7.23627 7.566 7.3716 7.08533 7.6236 6.628C7.8756 6.16133 8.24427 5.78333 8.7296 5.494C9.22427 5.19533 9.81694 5.046 10.5076 5.046C11.5623 5.046 12.3556 5.32133 12.8876 5.872C13.4289 6.41333 13.6996 7.104 13.6996 7.944C13.6996 8.532 13.5503 9.064 13.2516 9.54C12.9623 10.0067 12.5096 10.5107 11.8936 11.052L9.2056 13.782H13.5736C13.6763 13.782 13.7556 13.8147 13.8116 13.88C13.8769 13.936 13.9096 14.0107 13.9096 14.104V14.678C13.9096 14.7713 13.8769 14.8507 13.8116 14.916C13.7463 14.972 13.6669 15 13.5736 15H7.3996Z" fill="black"/>
</svg>
