<svg width="245" height="20" viewBox="0 0 245 20" fill="none" xmlns="http://www.w3.org/2000/svg">
<path d="M26.76 15C26.6533 15 26.5627 14.968 26.488 14.904C26.424 14.8293 26.392 14.7387 26.392 14.632V4.184C26.392 4.06667 26.424 3.976 26.488 3.912C26.5627 3.83733 26.6533 3.8 26.76 3.8H31.144C32.2853 3.8 33.144 4.072 33.72 4.616C34.296 5.16 34.584 5.87467 34.584 6.76C34.584 7.35733 34.4453 7.85333 34.168 8.248C33.9013 8.64267 33.5813 8.93067 33.208 9.112C33.656 9.336 34.0347 9.68267 34.344 10.152C34.6533 10.6213 34.808 11.16 34.808 11.768C34.808 12.3653 34.6693 12.9093 34.392 13.4C34.1253 13.8907 33.7253 14.28 33.192 14.568C32.6587 14.856 32.0187 15 31.272 15H26.76ZM30.904 8.536C31.576 8.536 32.088 8.38133 32.44 8.072C32.8027 7.76267 32.984 7.33067 32.984 6.776C32.984 6.232 32.808 5.816 32.456 5.528C32.104 5.24 31.5867 5.096 30.904 5.096H27.96V8.536H30.904ZM31.064 13.704C31.736 13.704 32.2587 13.5227 32.632 13.16C33.016 12.7973 33.208 12.3333 33.208 11.768C33.208 11.1813 33.016 10.712 32.632 10.36C32.2587 9.99733 31.736 9.816 31.064 9.816H27.96V13.704H31.064ZM40.2795 15.16C39.1062 15.16 38.1942 14.8293 37.5435 14.168C36.9035 13.5067 36.5622 12.6267 36.5195 11.528L36.5035 10.84L36.5195 10.152C36.5622 9.064 36.9088 8.18933 37.5595 7.528C38.2102 6.856 39.1168 6.52 40.2795 6.52C41.4422 6.52 42.3488 6.856 42.9995 7.528C43.6502 8.18933 43.9968 9.064 44.0395 10.152C44.0502 10.2693 44.0555 10.4987 44.0555 10.84C44.0555 11.1813 44.0502 11.4107 44.0395 11.528C43.9968 12.6267 43.6502 13.5067 42.9995 14.168C42.3595 14.8293 41.4528 15.16 40.2795 15.16ZM40.2795 13.928C40.9515 13.928 41.4795 13.7147 41.8635 13.288C42.2582 12.8613 42.4715 12.248 42.5035 11.448C42.5142 11.3413 42.5195 11.1387 42.5195 10.84C42.5195 10.5413 42.5142 10.3387 42.5035 10.232C42.4715 9.432 42.2582 8.81867 41.8635 8.392C41.4795 7.96533 40.9515 7.752 40.2795 7.752C39.6075 7.752 39.0742 7.96533 38.6795 8.392C38.2848 8.81867 38.0768 9.432 38.0555 10.232L38.0395 10.84L38.0555 11.448C38.0768 12.248 38.2848 12.8613 38.6795 13.288C39.0742 13.7147 39.6075 13.928 40.2795 13.928ZM53.131 6.68C53.2163 6.68 53.291 6.712 53.355 6.776C53.4297 6.84 53.467 6.91467 53.467 7V14.632C53.467 14.7387 53.4297 14.8293 53.355 14.904C53.291 14.968 53.2057 15 53.099 15H52.347C52.2403 15 52.1497 14.968 52.075 14.904C52.011 14.8293 51.979 14.7387 51.979 14.632V8.824L47.547 14.76C47.4297 14.92 47.291 15 47.131 15H46.411C46.315 15 46.2297 14.968 46.155 14.904C46.091 14.8293 46.059 14.7493 46.059 14.664V7.048C46.059 6.94133 46.091 6.856 46.155 6.792C46.2297 6.71733 46.3203 6.68 46.427 6.68H47.195C47.3017 6.68 47.387 6.71733 47.451 6.792C47.5257 6.856 47.563 6.94133 47.563 7.048V12.824L51.979 6.92C52.0963 6.76 52.235 6.68 52.395 6.68H53.131ZM49.803 5.576C48.9497 5.576 48.3363 5.38933 47.963 5.016C47.5897 4.64267 47.403 4.16267 47.403 3.576C47.403 3.49067 47.4297 3.42133 47.483 3.368C47.5363 3.304 47.611 3.272 47.707 3.272H48.251C48.347 3.272 48.4217 3.304 48.475 3.368C48.5283 3.42133 48.555 3.49067 48.555 3.576C48.555 4.248 48.971 4.584 49.803 4.584C50.635 4.584 51.051 4.248 51.051 3.576C51.051 3.49067 51.0777 3.42133 51.131 3.368C51.1843 3.304 51.259 3.272 51.355 3.272H51.915C52.011 3.272 52.0857 3.304 52.139 3.368C52.1923 3.42133 52.219 3.49067 52.219 3.576C52.219 4.152 52.027 4.632 51.643 5.016C51.2697 5.38933 50.6563 5.576 49.803 5.576ZM58.353 15C58.2463 15 58.1557 14.968 58.081 14.904C58.017 14.8293 57.985 14.7387 57.985 14.632V7.96H55.201C55.0943 7.96 55.0037 7.928 54.929 7.864C54.865 7.78933 54.833 7.69867 54.833 7.592V7.048C54.833 6.94133 54.865 6.856 54.929 6.792C55.0037 6.71733 55.0943 6.68 55.201 6.68H62.241C62.3477 6.68 62.433 6.71733 62.497 6.792C62.5717 6.856 62.609 6.94133 62.609 7.048V7.592C62.609 7.69867 62.5717 7.78933 62.497 7.864C62.433 7.928 62.3477 7.96 62.241 7.96H59.457V14.632C59.457 14.7387 59.425 14.8293 59.361 14.904C59.297 14.968 59.2117 15 59.105 15H58.353ZM71.0685 6.68C71.1538 6.68 71.2285 6.712 71.2925 6.776C71.3672 6.84 71.4045 6.91467 71.4045 7V14.632C71.4045 14.7387 71.3672 14.8293 71.2925 14.904C71.2285 14.968 71.1432 15 71.0365 15H70.2845C70.1778 15 70.0872 14.968 70.0125 14.904C69.9485 14.8293 69.9165 14.7387 69.9165 14.632V8.824L65.4845 14.76C65.3672 14.92 65.2285 15 65.0685 15H64.3485C64.2525 15 64.1672 14.968 64.0925 14.904C64.0285 14.8293 63.9965 14.7493 63.9965 14.664V7.048C63.9965 6.94133 64.0285 6.856 64.0925 6.792C64.1672 6.71733 64.2578 6.68 64.3645 6.68H65.1325C65.2392 6.68 65.3245 6.71733 65.3885 6.792C65.4632 6.856 65.5005 6.94133 65.5005 7.048V12.824L69.9165 6.92C70.0338 6.76 70.1725 6.68 70.3325 6.68H71.0685Z" fill="black"/>
<path d="M0 15H13C12.8 12.4 10.9 10.2 8.3 9.5C9.3 8.9 10 7.8 10 6.5C10 4.6 8.4 3 6.5 3C4.6 3 3 4.6 3 6.5C3 7.8 3.7 8.9 4.7 9.5C2.1 10.2 0.2 12.4 0 15Z" fill="black"/>
</svg>
