<svg width="16" height="16" viewBox="0 0 16 16" fill="none" xmlns="http://www.w3.org/2000/svg">
<g clip-path="url(#clip0)">
<g filter="url(#filter0_d)">
<path d="M15.7 14.3L12.6 11.2C13.5 10 14 8.6 14 7C14 3.1 10.9 0 7 0C3.1 0 0 3.1 0 7C0 10.9 3.1 14 7 14C8.6 14 10 13.5 11.2 12.6L14.3 15.7C14.5 15.9 14.7 16 15 16C15.6 16 16 15.6 16 15C16 14.8 15.9 14.5 15.7 14.3ZM2 7C2 4.2 4.2 2 7 2C9.8 2 12 4.2 12 7C12 9.8 9.8 12 7 12C4.2 12 2 9.8 2 7Z" fill="black"/>
<path d="M12.2 10.9L11.9398 11.2469L12.2464 11.5536L15.3464 14.6536C15.3896 14.6967 15.4307 14.7606 15.4608 14.8357C15.4917 14.913 15.5 14.9748 15.5 15C15.5 15.1864 15.4401 15.3028 15.3714 15.3714C15.3028 15.4401 15.1864 15.5 15 15.5C14.9083 15.5 14.8543 15.4853 14.8156 15.4681C14.7747 15.4499 14.724 15.4169 14.6536 15.3464L11.5536 12.2464L11.2469 11.9398L10.9 12.2C9.78352 13.0374 8.48809 13.5 7 13.5C3.37614 13.5 0.5 10.6239 0.5 7C0.5 3.37614 3.37614 0.5 7 0.5C10.6239 0.5 13.5 3.37614 13.5 7C13.5 8.48809 13.0374 9.78352 12.2 10.9ZM7 1.5C3.92386 1.5 1.5 3.92386 1.5 7C1.5 10.0761 3.92386 12.5 7 12.5C10.0761 12.5 12.5 10.0761 12.5 7C12.5 3.92386 10.0761 1.5 7 1.5Z" stroke="black"/>
</g>
</g>
<defs>
<filter id="filter0_d" x="-4" y="0" width="24" height="24" filterUnits="userSpaceOnUse" color-interpolation-filters="sRGB">
<feFlood flood-opacity="0" result="BackgroundImageFix"/>
<feColorMatrix in="SourceAlpha" type="matrix" values="0 0 0 0 0 0 0 0 0 0 0 0 0 0 0 0 0 0 127 0" result="hardAlpha"/>
<feOffset dy="4"/>
<feGaussianBlur stdDeviation="2"/>
<feComposite in2="hardAlpha" operator="out"/>
<feColorMatrix type="matrix" values="0 0 0 0 0 0 0 0 0 0 0 0 0 0 0 0 0 0 0.25 0"/>
<feBlend mode="normal" in2="BackgroundImageFix" result="effect1_dropShadow"/>
<feBlend mode="normal" in="SourceGraphic" in2="effect1_dropShadow" result="shape"/>
</filter>
<clipPath id="clip0">
<rect width="16" height="16" fill="white"/>
</clipPath>
</defs>
</svg>
